<svg width="281" height="282" viewBox="0 0 281 282" fill="none" xmlns="http://www.w3.org/2000/svg">
<path d="M117.733 2.56008C128.573 -0.0665852 139.84 0.72009 150.88 0.84009C177.653 3.33342 203.773 13.3734 225.147 29.7467C248.693 47.5067 266.453 72.9734 274.427 101.413C279.68 120.36 282.147 140.44 278.867 159.96C276.347 182.693 267.36 204.507 254.08 223.067C232.853 252.507 200.08 273.76 164.2 279.867C164.16 275.12 164.12 270.373 164.067 265.627C175.6 263.44 188.133 255.253 189.173 242.6C190.4 231.653 183.24 222.293 176.187 214.787C165.573 203.947 153.053 195.2 140.253 187.16C126.973 195.56 113.947 204.627 103.147 216.133C96.9734 223.093 90.6801 231.427 91.2668 241.24C91.1334 254.707 104.613 263.76 116.693 265.68C116.84 270.413 116.853 275.147 116.88 279.88C102.733 278.027 89.2934 272.653 76.6268 266.28C43.0801 249.16 16.9734 218.12 6.14677 182.013C1.18677 163.787 -1.65323 144.587 1.18677 125.747C4.1601 96.8134 16.7334 68.9468 36.3468 47.4668C57.5468 24.0934 86.5868 7.81342 117.733 2.56008ZM103.627 22.0934C96.6401 25.8134 90.7734 32.9734 91.2801 41.2801C90.5068 50.2134 95.4934 58.1734 101.187 64.5734C112.4 76.9601 126 86.9601 140.227 95.6001C153.187 87.1601 166.173 78.4267 176.92 67.2001C182.693 60.6401 188.653 53.2134 189.507 44.2001C190.627 36.0134 186.2 27.7734 179.253 23.5468C168.44 16.9734 155.467 14.9868 142.987 14.9868C129.64 14.7868 115.6 15.5601 103.627 22.0934ZM63.4401 46.8801C59.5468 57.2268 64.6134 68.0801 70.5068 76.5468C84.3068 96.2134 104.76 109.667 124.427 122.827C120.173 125.707 115.72 128.28 111.253 130.813C96.8001 121.507 82.8001 111.293 70.6268 99.1334C59.3201 87.1068 47.9334 72.6268 47.8401 55.3334C30.3601 75.1334 18.9868 100.133 15.5868 126.32C11.0668 162.253 23.3201 199.68 47.2268 226.733L48.2001 228.133C47.2001 212.44 56.9068 198.987 66.5468 187.627C87.4268 165.04 114.107 149.147 140.013 133.067C163.413 118 187.907 103.347 206.133 81.8934C213.533 72.9467 220.347 61.6401 218.24 49.5334C216.413 40.7467 208.613 35.3068 201.253 31.2534C206.28 43.4401 202.573 57.6801 194.84 67.9067C180.813 87.0667 160.133 99.6668 140.36 112.107C124.76 102.773 109.28 92.8401 96.2134 80.0801C88.5334 72.2401 81.3601 63.3201 78.1868 52.6534C75.8934 45.3201 76.8134 37.2268 80.2401 30.4001C73.9468 35.0134 65.8934 38.8134 63.4401 46.8801ZM232.413 54.4934C233.16 71.8001 222.08 86.4668 210.693 98.3201C191.307 117.8 167.853 132.493 144.667 146.973C124.56 159.933 103.613 172 86.0534 188.44C77.2534 196.64 68.7734 205.813 64.5334 217.28C62.0401 223.947 61.2135 231.853 64.4668 238.413C67.4135 244.147 73.5068 247.027 78.4001 250.813C76.8134 244.08 76.1068 236.827 78.2934 230.147C81.6668 217.08 91.3601 206.987 101.013 198.107C112.96 187.4 126.613 178.853 140.227 170.467C159.653 182.44 179.747 194.773 193.827 213.16C201.933 223.587 206.507 238.2 201.4 250.907C208.973 247.453 216.307 241.653 218.187 233.12C219.72 223.733 215.88 214.427 210.813 206.72C203.027 195.587 192.867 186.347 182.253 177.96C173.853 171.773 165.493 165.427 156.293 160.48C160.227 157.28 164.44 154.173 169.053 152.067C177.627 156.68 185.4 162.667 193.147 168.533C205.48 178.387 217.173 189.493 225.413 203.08C229.32 209.467 231.6 216.667 232.427 224.093C232.267 225.053 231.96 226.987 231.8 227.947C254.507 203.853 266.84 170.333 265.907 137.307C264.92 106.813 252.16 77.4934 232.413 54.4934Z" fill="black"/>
<path d="M119.453 247.214C119.44 242.907 119.44 238.613 119.427 234.333C133.44 234.36 147.453 234.307 161.467 234.267C161.467 238.574 161.467 242.894 161.467 247.214C156.573 247.174 151.68 247.227 146.787 247.107C146.987 258.613 147.267 270.12 147.12 281.627C142.747 281.64 138.373 281.627 134 281.653C133.267 270.187 133.64 258.68 133.52 247.187C128.827 247.2 124.133 247.2 119.453 247.214Z" fill="black"/>
</svg>
